# Blender v2.78 (sub 0) OBJ File: 'car.blend'
# www.blender.org
mtllib car4.mtl
o wavefront_
v -0.009801 2.528852 -1.816352
v -0.009800 2.296283 -3.996392
v -1.213883 2.479873 -1.796617
v -2.037551 2.365142 -1.580104
v -0.009801 2.503192 -1.692780
v 2.017902 2.365142 -1.580103
v -1.213883 2.251699 -3.960650
v -1.527447 1.971011 -4.409349
v 1.194283 2.251700 -3.960650
v -0.009800 2.057311 -4.896277
v 1.507847 1.971011 -4.409349
v 1.194283 2.479873 -1.796616
v -0.009801 0.666535 4.661651
v 2.347426 0.657361 4.661652
v 2.249849 0.896094 5.602058
v -0.009802 0.917693 5.710959
v 2.153612 1.929677 -4.589593
v -0.009801 3.202858 -0.300855
v -0.009801 3.232056 2.530254
v 1.438080 3.174810 2.530254
v 1.438080 3.089656 -0.223539
v -0.009802 2.730363 4.347800
v -0.009802 2.561731 5.628767
v 2.175161 2.509885 5.554654
v 2.017901 2.618977 4.347800
v -0.009800 0.620611 -5.065339
v -0.009800 1.346606 -5.162486
v 2.280337 1.303743 -4.896658
v 2.280337 0.613682 -4.788664
v 2.303130 1.711062 -3.757181
v 2.334620 1.711062 -2.649576
v 2.347426 1.758849 3.064585
v 2.310966 1.758849 4.271058
v 2.249849 1.899003 5.786890
v -0.009802 1.972926 5.895791
v 2.301602 0.487387 -4.156423
v -0.009800 0.487721 -4.230681
v 2.347427 0.480985 -2.321007
v 2.347426 0.574931 2.684696
v -0.009801 0.579853 2.684696
v -0.009800 0.480984 -2.321007
v -0.009800 2.181217 -3.036108
v -0.009801 1.875683 3.572251
v -1.247332 0.984684 -4.513902
v 1.227494 0.998351 -4.520306
v 1.227731 1.180318 4.790192
v -1.247334 1.180318 4.790192
v 1.227493 1.927384 -4.152410
v 1.227731 2.023005 5.385448
v -1.247334 2.023004 5.385448
v -1.247332 1.927384 -4.146007
v -2.269452 0.896046 5.602057
v -2.367028 0.657360 4.661651
v -2.175219 1.896610 -4.544485
v -1.457730 3.089656 -0.223540
v -1.457730 3.174809 2.530254
v -2.037552 2.618977 4.347799
v -2.194764 2.509884 5.554653
v -2.301992 0.613682 -4.738873
v -2.301992 1.303743 -4.846868
v -2.323639 1.711062 -3.757182
v -2.354221 1.711062 -2.649576
v -2.367027 0.480984 -2.321007
v -2.367028 1.758849 3.064585
v -2.330569 1.758849 4.271057
v -2.269452 1.899003 5.786889
v -2.322109 0.487387 -4.135111
v -2.367028 0.574931 2.684696
vt 0.4879 0.2855
vt 0.4879 0.1824
vt 0.5798 0.2865
vt 0.6427 0.2974
vt 0.4879 0.2917
vt 0.3331 0.2974
vt 0.5798 0.1842
vt 0.6037 0.1616
vt 0.3959 0.1842
vt 0.4879 0.1443
vt 0.3720 0.1616
vt 0.3959 0.2865
vt 0.2478 0.6139
vt 0.0377 0.6139
vt 0.0377 0.6310
vt 0.2478 0.6310
vt 0.3227 0.1525
vt 0.7860 0.2826
vt 0.7860 0.1632
vt 0.6962 0.1646
vt 0.6962 0.2799
vt 0.4843 0.2411
vt 0.4843 0.1319
vt 0.6350 0.1705
vt 0.6417 0.2746
vt 0.7264 0.6047
vt 0.7264 0.7190
vt 0.5103 0.7190
vt 0.5103 0.6047
vt 0.7264 0.7807
vt 0.5138 0.7758
vt 0.8885 0.4395
vt 0.6885 0.5075
vt 0.1439 0.5338
vt 0.7868 0.4395
vt 0.0374 0.5175
vt 0.2618 0.4445
vt 0.1510 0.4445
vt 0.0117 0.4591
vt 0.0302 0.7544
vt 0.2478 0.7544
vt 0.0457 0.8189
vt 0.2478 0.8234
vt 0.7237 0.8202
vt 0.7237 0.8982
vt 0.5886 0.8902
vt 0.5404 0.8134
vt 0.5639 0.5777
vt 0.3109 0.5888
vt 0.0917 0.8407
vt 0.1229 0.8924
vt 0.2478 0.8987
vt 0.2478 0.8407
vt 0.9252 0.3125
vt 0.9833 0.3256
vt 0.9888 0.3972
vt 0.8671 0.3278
vt 0.8596 0.3275
vt 0.8593 0.3547
vt 0.8682 0.3547
vt 0.1151 0.3301
vt 0.0287 0.3549
vt 0.7566 0.3118
vt 0.2967 0.3216
vt 0.8397 0.3270
vt 0.7946 0.3270
vt 0.7946 0.3547
vt 0.8397 0.3547
vt 0.8419 0.3271
vt 0.8482 0.3547
vt 0.8548 0.3275
vt 0.7811 0.3274
vt 0.7748 0.3547
vt 0.7863 0.3547
vt 0.7915 0.3270
vt 0.7748 0.3270
vt 0.8633 0.3692
vt 0.8634 0.3401
vt 0.7749 0.3401
vt 0.7749 0.3692
vt 0.8582 0.3401
vt 0.7694 0.3401
vt 0.7694 0.3692
vt 0.8581 0.3692
vt 0.4548 0.6310
vt 0.4548 0.6139
vt 0.6532 0.1548
vt 0.8759 0.2799
vt 0.8759 0.1646
vt 0.3269 0.2746
vt 0.3336 0.1705
vt 0.9426 0.6047
vt 0.9426 0.7190
vt 0.9391 0.7725
vt 0.8885 0.4395
vt 0.7868 0.4395
vt 0.1439 0.5338
vt 0.6885 0.5075
vt 0.7566 0.3118
vt 0.2618 0.4445
vt 0.1510 0.4445
vt 0.1151 0.3301
vt 0.0117 0.4591
vt 0.0374 0.5175
vt 0.4600 0.7544
vt 0.4415 0.8189
vt 0.9023 0.8134
vt 0.8589 0.8902
vt 0.3109 0.5888
vt 0.5639 0.5777
vt 0.3969 0.8407
vt 0.3646 0.8924
vt 0.9842 0.3972
vt 0.9787 0.3256
vt 0.9232 0.3125
vt 0.8664 0.3816
vt 0.8593 0.3818
vt 0.0287 0.3549
vt 0.2967 0.3216
vt 0.8419 0.3822
vt 0.8545 0.3818
vt 0.8397 0.3824
vt 0.7811 0.3819
vt 0.7915 0.3824
vt 0.7946 0.3824
vt 0.7748 0.3824
vt 0.9650 0.4622
vt 0.9608 0.4588
vn 0.0000 0.9986 0.0533
vn -0.0000 0.9832 -0.1826
vn -0.0902 0.9907 0.1018
vn -0.1602 0.9826 -0.0936
vn -0.0000 0.9791 0.2033
vn 0.1602 0.9826 -0.0936
vn -0.3100 0.9300 -0.1976
vn -0.2985 0.9025 -0.3104
vn 0.3100 0.9300 -0.1976
vn 0.0000 0.9506 -0.3104
vn 0.2985 0.9025 -0.3104
vn 0.0902 0.9907 0.1018
vn 0.0000 -0.9717 0.2361
vn -0.0038 -0.9693 0.2457
vn 0.0226 -0.7074 0.7064
vn -0.0000 -0.6749 0.7379
vn -0.0089 0.9893 -0.1456
vn 0.0780 0.9872 -0.1393
vn -0.0000 0.9997 -0.0245
vn -0.0000 0.9999 -0.0103
vn 0.0516 0.9985 -0.0165
vn 0.0796 0.9963 -0.0308
vn -0.0000 0.9933 0.1152
vn -0.0000 0.9914 0.1305
vn 0.0449 0.9939 0.1004
vn 0.0547 0.9951 0.0828
vn -0.0107 -0.1367 -0.9906
vn -0.0112 0.1249 -0.9921
vn 0.1199 0.1420 -0.9826
vn 0.1180 -0.1535 -0.9811
vn -0.0117 0.3508 -0.9364
vn 0.1190 0.4353 -0.8924
vn 0.9913 0.1293 -0.0257
vn 0.8681 0.4959 -0.0213
vn 0.8799 0.4717 -0.0577
vn 0.9415 0.3365 -0.0176
vn 0.9798 0.2000 0.0067
vn 0.9667 0.2559 -0.0067
vn 0.9941 0.1036 0.0316
vn 0.9961 0.0750 0.0474
vn 0.0441 0.0823 0.9956
vn 0.0000 0.1295 0.9916
vn 0.0401 0.3593 0.9323
vn 0.0000 0.4035 0.9150
vn -0.0000 0.8952 -0.4457
vn 0.0000 0.8935 -0.4491
vn 0.0887 0.8919 -0.4434
vn 0.0853 0.8935 -0.4408
vn 0.7620 0.6473 -0.0200
vn 0.7394 0.6727 -0.0282
vn 0.0466 0.9611 0.2722
vn 0.0379 0.9589 0.2812
vn -0.0000 0.9619 0.2734
vn -0.0000 0.9639 0.2661
vn 0.9995 0.0091 -0.0318
vn 0.9997 0.0033 -0.0256
vn 0.9960 0.0756 -0.0469
vn 0.0082 -0.9822 -0.1879
vn 0.0776 -0.8851 0.4589
vn 0.0011 -0.9271 0.3747
vn -0.0016 -0.9876 -0.1572
vn 0.9978 0.0227 0.0615
vn 0.9939 -0.0199 0.1082
vn 1.0000 0.0086 -0.0021
vn 1.0000 -0.0000 0.0000
vn -0.0002 -0.8006 -0.5993
vn -0.0017 -0.8027 0.5964
vn -0.0006 -0.7470 0.6648
vn 0.0000 -0.6745 -0.7383
vn -0.0846 -0.7430 -0.6639
vn 0.0016 -0.9962 -0.0872
vn 0.0643 -0.7289 0.6816
vn 0.0213 -0.8062 -0.5912
vn 0.0000 -0.5802 -0.8145
vn 0.0000 -0.9969 0.0792
vn 0.0099 -0.7932 0.6088
vn -0.0013 -0.3343 -0.9425
vn -0.5969 -0.8022 0.0159
vn 0.6022 -0.7982 0.0156
vn 0.8147 -0.5798 0.0120
vn -0.8147 -0.5798 0.0122
vn -1.0000 -0.0000 -0.0000
vn -0.0227 -0.7075 0.7064
vn 0.0038 -0.9694 0.2456
vn -0.0975 0.9837 -0.1510
vn -0.0796 0.9963 -0.0308
vn -0.0516 0.9985 -0.0165
vn -0.0547 0.9951 0.0828
vn -0.0449 0.9939 0.1004
vn -0.1389 -0.1531 -0.9784
vn -0.1407 0.1509 -0.9785
vn -0.1380 0.4488 -0.8829
vn -0.9914 0.1285 -0.0252
vn -0.9417 0.3360 -0.0172
vn -0.8798 0.4717 -0.0577
vn -0.8674 0.4972 -0.0217
vn -1.0000 0.0086 -0.0021
vn -0.9667 0.2559 -0.0067
vn -0.9941 0.1036 0.0316
vn -0.9978 0.0227 0.0615
vn -0.9961 0.0750 0.0474
vn -0.9798 0.2001 0.0067
vn -0.0441 0.0823 0.9956
vn -0.0402 0.3594 0.9323
vn -0.0853 0.8935 -0.4408
vn -0.0887 0.8919 -0.4434
vn -0.7394 0.6727 -0.0282
vn -0.7620 0.6473 -0.0200
vn -0.0466 0.9611 0.2722
vn -0.0379 0.9589 0.2812
vn -0.9957 0.0785 -0.0491
vn -0.9997 0.0031 -0.0256
vn -0.9995 0.0085 -0.0315
vn -0.0106 -0.9807 -0.1951
vn -0.0792 -0.8835 0.4617
vn -0.9939 -0.0199 0.1082
vn 0.0847 -0.7431 -0.6638
vn -0.0675 -0.7226 0.6880
vn -0.0000 -0.2581 -0.9661
vn -0.0213 -0.8062 -0.5912
vn -0.0099 -0.7932 0.6088
vn 0.0006 -0.3055 0.9522
vn 0.0013 -0.3343 -0.9425
vn 0.9500 0.2984 -0.0923
vn 0.8973 0.4391 -0.0459
vn -0.9429 0.3167 -0.1030
vn -0.8825 0.4670 -0.0562
vn -0.8674 0.4971 -0.0217
usemtl ac3dmat1
s 1
f 1/1/1 2/2/2 3/3/3 4/4/4
f 4/4/4 5/5/5 6/6/6 1/1/1
f 3/3/3 2/2/2 7/7/7 8/8/8
f 8/8/8 4/4/4 3/3/3
f 7/7/7 2/2/2 9/9/9 10/10/10
f 10/10/10 8/8/8 7/7/7
f 1/1/1 6/6/6 11/11/11 12/12/12
f 12/12/12 11/11/11 10/10/10 9/9/9
f 12/12/12 9/9/9 2/2/2 1/1/1
f 13/13/13 14/14/14 15/15/15 16/16/16
f 10/10/17 6/6/18 17/17/18
f 18/18/19 19/19/20 20/20/21 21/21/22
f 22/22/23 23/23/24 24/24/25 25/25/26
f 26/26/27 27/27/28 28/28/29 29/29/30
f 27/27/28 10/30/31 17/31/32 28/28/29
f 30/32/33 6/33/34 25/34/35 31/35/36
f 31/35/36 25/34/35 24/36/37 32/37/38
f 33/38/39 32/37/38 24/36/37 34/39/40
f 15/15/15 34/40/41 35/41/42 16/16/16
f 34/40/41 24/42/43 23/43/44 35/41/42
f 5/44/45 18/45/46 21/46/47 6/47/48
f 6/33/34 21/48/49 20/49/50 25/34/35
f 25/50/51 20/51/52 19/52/53 22/53/54
f 30/32/33 36/54/55 29/55/56 28/56/57
f 29/57/58 36/58/59 37/59/60 26/60/61
f 14/61/62 33/38/39 34/39/40 15/62/63
f 38/63/64 31/35/36 32/37/38 39/64/65
f 38/65/66 39/66/67 40/67/68 41/68/69
f 31/69/70 41/68/69 42/70/71 30/71/72
f 42/70/71 37/59/60 36/58/59 30/71/72
f 41/68/69 31/69/70 38/65/66
f 33/72/73 13/73/74 43/74/75 32/75/76
f 40/67/68 39/66/67 32/75/76 43/74/75
f 13/73/74 33/72/73 14/76/77
f 44/77/78 45/78/79 46/79/80 47/80/81
f 45/78/79 48/81/65 49/82/65 46/79/80
f 47/80/81 50/83/82 51/84/82 44/77/78
f 13/13/13 16/16/16 35/41/42 52/85/83
f 52/85/83 53/86/84 13/13/13
f 10/10/17 54/87/85 4/4/85
f 18/18/19 55/88/86 56/89/87 19/19/20
f 22/22/23 57/90/88 58/91/89 23/23/24
f 26/26/27 59/92/90 60/93/91 27/27/28
f 27/27/28 60/93/91 54/94/92 10/30/31
f 61/95/93 62/96/94 57/97/95 4/98/96
f 62/96/94 63/99/97 64/100/98 57/97/95
f 65/101/99 53/102/100 66/103/101 58/104/102
f 64/100/98 65/101/99 58/104/102 57/97/95
f 35/41/42 23/43/44 66/105/103 52/85/83
f 23/43/44 58/106/104 66/105/103
f 5/44/45 4/107/105 55/108/106 18/45/46
f 4/98/96 57/97/95 56/109/107 55/110/108
f 57/111/109 22/53/54 19/52/53 56/112/110
f 61/95/93 60/113/111 59/114/112 67/115/113
f 59/116/114 26/60/61 37/59/60 67/117/115
f 53/102/100 52/118/116 66/103/101
f 63/99/97 68/119/82 64/100/98
f 62/120/117 61/121/118 67/117/115 42/70/71
f 67/117/115 37/59/60 42/70/71
f 41/68/69 63/122/119 62/120/117 42/70/71
f 65/123/120 64/124/121 40/67/68 43/74/75
f 64/124/121 68/125/122 40/67/68
f 13/73/74 53/126/123 65/123/120 43/74/75
f 17/127/124 6/33/34 30/32/125 28/56/57
f 54/128/126 60/113/111 61/95/127 4/98/128
o cylinder02
v -1.764508 0.905411 3.684976
v -1.764508 0.377053 2.957738
v -1.764508 0.905411 2.786047
v -1.764508 1.433768 2.957738
v -1.764508 0.050492 3.962749
v -1.764508 0.050492 3.407203
v -1.764508 0.905411 4.583905
v -1.764508 0.377054 4.412214
v -1.764508 1.760330 3.962749
v -1.764508 1.433768 4.412214
v -1.764508 1.760330 3.407202
v -2.394695 0.905411 3.684976
v -2.394695 1.760330 3.407202
v -2.394695 1.433768 2.957738
v -2.394695 0.905410 2.786047
v -2.394695 0.377053 2.957738
v -2.394695 0.050492 3.407203
v -2.394695 0.050492 3.962749
v -2.394695 0.377054 4.412214
v -2.394695 0.905411 4.583904
v -2.394695 1.433768 4.412213
v -2.394695 1.760330 3.962749
vt 0.0993 0.2031
vt 0.1772 0.1440
vt 0.1956 0.2031
vt 0.1772 0.2621
vt 0.0696 0.1075
vt 0.1291 0.1075
vt 0.0031 0.2031
vt 0.0215 0.1440
vt 0.0696 0.2986
vt 0.0215 0.2621
vt 0.1291 0.2986
vt 0.0993 0.2031
vt 0.1291 0.2986
vt 0.1772 0.2621
vt 0.1956 0.2031
vt 0.1772 0.1440
vt 0.1291 0.1075
vt 0.0696 0.1075
vt 0.0215 0.1440
vt 0.0031 0.2031
vt 0.0215 0.2621
vt 0.0696 0.2986
vt 0.2063 0.1405
vt 0.2063 0.1030
vt 0.2754 0.1030
vt 0.2754 0.1405
vt 0.2063 0.1405
vt 0.2754 0.1405
vt 0.2063 0.1769
vt 0.2754 0.1769
vt 0.2063 0.2583
vt 0.2754 0.2583
vt 0.2754 0.2219
vt 0.2063 0.2219
vt 0.2063 0.2992
vt 0.2754 0.2992
vt 0.2063 0.2583
vt 0.2754 0.2583
vt 0.2063 0.2219
vt 0.2754 0.2219
vt 0.2063 0.1769
vt 0.2754 0.1769
vn 1.0000 0.0000 0.0000
vn -1.0000 -0.0000 -0.0000
vn -0.0000 0.5878 -0.8090
vn 0.0000 -0.0000 -1.0000
vn 0.0000 -0.5878 -0.8090
vn 0.0000 -0.8090 -0.5878
vn 0.0000 -0.5878 0.8090
vn 0.0000 -0.8090 0.5878
vn -0.0000 0.0000 1.0000
vn -0.0000 0.5878 0.8090
vn -0.0000 0.9511 0.3090
vn -0.0000 0.9511 -0.3090
usemtl ac3dmat1
s 1
f 69/129/129 70/130/129 71/131/129 72/132/129
f 69/129/129 73/133/129 74/134/129 70/130/129
f 69/129/129 75/135/129 76/136/129 73/133/129
f 69/129/129 77/137/129 78/138/129 75/135/129
f 69/129/129 72/132/129 79/139/129 77/137/129
f 80/140/130 81/141/130 82/142/130 83/143/130
f 80/140/130 83/143/130 84/144/130 85/145/130
f 80/140/130 85/145/130 86/146/130 87/147/130
f 80/140/130 87/147/130 88/148/130 89/149/130
f 80/140/130 89/149/130 90/150/130 81/141/130
f 72/151/131 71/152/132 83/153/132 82/154/131
f 71/152/132 70/155/133 84/156/133 83/153/132
f 74/157/134 85/158/134 84/156/133 70/155/133
f 76/159/135 87/160/135 86/161/136 73/162/136
f 76/159/135 75/163/137 88/164/137 87/160/135
f 75/163/137 78/165/138 89/166/138 88/164/137
f 89/166/138 78/165/138 77/167/139 90/168/139
f 90/168/139 77/167/139 79/169/140 81/170/140
f 81/170/140 79/169/140 72/151/131 82/154/131
o cylinder01
v 1.749972 1.760330 3.407203
v 2.380159 1.760330 3.407203
v 2.380159 1.433768 2.957739
v 1.749972 1.433768 2.957739
v 1.749972 1.760330 3.962750
v 2.380159 1.760330 3.962750
v 1.749972 1.433768 4.412214
v 2.380159 1.433768 4.412215
v 2.380159 0.905411 4.583906
v 1.749972 0.905411 4.583905
v 2.380159 0.377054 4.412215
v 1.749972 0.377054 4.412215
v 1.749972 0.050492 3.962750
v 2.380159 0.050492 3.962750
v 2.380159 0.050492 3.407204
v 1.749972 0.050492 3.407204
v 1.749972 0.377053 2.957739
v 2.380159 0.377053 2.957739
v 2.380159 0.905411 2.786048
v 1.749972 0.905411 2.786048
v 1.749972 0.905411 3.684977
v 2.380159 0.905411 3.684977
vt 0.2754 0.1769
vt 0.2063 0.1769
vt 0.2063 0.1405
vt 0.2754 0.1405
vt 0.2754 0.2219
vt 0.2063 0.2219
vt 0.2754 0.2583
vt 0.2063 0.2583
vt 0.2063 0.2992
vt 0.2754 0.2992
vt 0.2063 0.2583
vt 0.2754 0.2583
vt 0.2754 0.2219
vt 0.2063 0.2219
vt 0.2063 0.1769
vt 0.2754 0.1769
vt 0.2754 0.1405
vt 0.2063 0.1405
vt 0.2063 0.1030
vt 0.2754 0.1030
vt 0.0993 0.2031
vt 0.0696 0.2986
vt 0.1291 0.2986
vt 0.1772 0.2621
vt 0.0031 0.2031
vt 0.0215 0.2621
vt 0.0696 0.1075
vt 0.0215 0.1440
vt 0.1772 0.1440
vt 0.1291 0.1075
vt 0.1956 0.2031
vt 0.0993 0.2031
vt 0.1956 0.2031
vt 0.1772 0.2621
vt 0.1291 0.2986
vt 0.0696 0.2986
vt 0.0215 0.2621
vt 0.0031 0.2031
vt 0.0215 0.1440
vt 0.0696 0.1075
vt 0.1291 0.1075
vt 0.1772 0.1440
vn 0.0000 0.9511 -0.3090
vn 0.0000 0.5878 -0.8090
vn -0.0000 0.9511 0.3090
vn -0.0000 0.5878 0.8090
vn -0.0000 0.0000 1.0000
vn 0.0000 -0.5878 0.8090
vn 0.0000 -0.8090 0.5878
vn 0.0000 -0.8090 -0.5878
vn 0.0000 -0.5878 -0.8090
vn 0.0000 -0.0000 -1.0000
vn -1.0000 -0.0000 -0.0000
vn 1.0000 0.0000 0.0000
usemtl ac3dmat1
s 1
f 91/171/141 92/172/141 93/173/142 94/174/142
f 95/175/143 96/176/143 92/172/141 91/171/141
f 97/177/144 98/178/144 96/176/143 95/175/143
f 99/179/145 98/178/144 97/177/144 100/180/145
f 101/181/146 99/179/145 100/180/145 102/182/146
f 101/181/146 102/182/146 103/183/147 104/184/147
f 105/185/148 106/186/148 107/187/149 108/188/149
f 109/189/150 108/188/149 107/187/149 110/190/150
f 93/173/142 109/189/150 110/190/150 94/174/142
f 111/191/151 95/192/151 91/193/151 94/194/151
f 111/191/151 100/195/151 97/196/151 95/192/151
f 111/191/151 103/197/151 102/198/151 100/195/151
f 111/191/151 107/199/151 106/200/151 103/197/151
f 111/191/151 94/194/151 110/201/151 107/199/151
f 112/202/152 109/203/152 93/204/152 92/205/152
f 112/202/152 92/205/152 96/206/152 98/207/152
f 112/202/152 98/207/152 99/208/152 101/209/152
f 112/202/152 101/209/152 104/210/152 105/211/152
f 112/202/152 105/211/152 108/212/152 109/203/152
o cylinder00
v -2.394695 1.760328 -3.473817
v -1.764508 1.760328 -3.473817
v -1.764508 1.433766 -3.923282
v -2.394695 1.433766 -3.923282
v -2.394695 1.760329 -2.918271
v -1.764508 1.760329 -2.918271
v -2.394695 1.433767 -2.468806
v -1.764508 1.433767 -2.468806
v -1.764508 0.905410 -2.297115
v -2.394695 0.905410 -2.297115
v -1.764508 0.377052 -2.468806
v -2.394695 0.377052 -2.468806
v -2.394695 0.050491 -2.918270
v -1.764508 0.050491 -2.918270
v -1.764508 0.050490 -3.473817
v -2.394695 0.050490 -3.473817
v -2.394695 0.377052 -3.923281
v -1.764508 0.377052 -3.923281
v -1.764508 0.905409 -4.094973
v -2.394695 0.905409 -4.094973
v -2.394695 0.905410 -3.196044
v -1.764508 0.905410 -3.196044
vt 0.2754 0.1769
vt 0.2063 0.1769
vt 0.2063 0.1405
vt 0.2754 0.1405
vt 0.2754 0.2219
vt 0.2063 0.2219
vt 0.2754 0.2583
vt 0.2063 0.2583
vt 0.2063 0.2992
vt 0.2754 0.2992
vt 0.2063 0.2583
vt 0.2754 0.2583
vt 0.2754 0.2219
vt 0.2063 0.2219
vt 0.2063 0.1769
vt 0.2754 0.1769
vt 0.2754 0.1405
vt 0.2063 0.1405
vt 0.2063 0.1030
vt 0.2754 0.1030
vt 0.0993 0.2031
vt 0.0696 0.2986
vt 0.1291 0.2986
vt 0.1772 0.2621
vt 0.0031 0.2031
vt 0.0215 0.2621
vt 0.0696 0.1075
vt 0.0215 0.1440
vt 0.1772 0.1440
vt 0.1291 0.1075
vt 0.1956 0.2031
vt 0.0993 0.2031
vt 0.1956 0.2031
vt 0.1772 0.2621
vt 0.1291 0.2986
vt 0.0696 0.2986
vt 0.0215 0.2621
vt 0.0031 0.2031
vt 0.0215 0.1440
vt 0.0696 0.1075
vt 0.1291 0.1075
vt 0.1772 0.1440
vn -0.0000 0.9511 -0.3090
vn 0.0000 0.5878 -0.8090
vn -0.0000 0.9511 0.3090
vn -0.0000 0.5878 0.8090
vn -0.0000 0.0000 1.0000
vn -0.0000 -0.5878 0.8090
vn -0.0000 -0.8090 0.5878
vn 0.0000 -0.8090 -0.5878
vn 0.0000 -0.5878 -0.8090
vn 0.0000 -0.0000 -1.0000
vn -1.0000 -0.0000 -0.0000
vn 1.0000 0.0000 0.0000
usemtl ac3dmat1
s 1
f 113/213/153 114/214/153 115/215/154 116/216/154
f 117/217/155 118/218/155 114/214/153 113/213/153
f 119/219/156 120/220/156 118/218/155 117/217/155
f 121/221/157 120/220/156 119/219/156 122/222/157
f 123/223/158 121/221/157 122/222/157 124/224/158
f 123/223/158 124/224/158 125/225/159 126/226/159
f 127/227/160 128/228/160 129/229/161 130/230/161
f 131/231/162 130/230/161 129/229/161 132/232/162
f 115/215/154 131/231/162 132/232/162 116/216/154
f 133/233/163 117/234/163 113/235/163 116/236/163
f 133/233/163 122/237/163 119/238/163 117/234/163
f 133/233/163 125/239/163 124/240/163 122/237/163
f 133/233/163 129/241/163 128/242/163 125/239/163
f 133/233/163 116/236/163 132/243/163 129/241/163
f 134/244/164 131/245/164 115/246/164 114/247/164
f 134/244/164 114/247/164 118/248/164 120/249/164
f 134/244/164 120/249/164 121/250/164 123/251/164
f 134/244/164 123/251/164 126/252/164 127/253/164
f 134/244/164 127/253/164 130/254/164 131/245/164
o cylinder
v 2.380159 0.905410 -3.196043
v 2.380159 0.377052 -3.923280
v 2.380159 0.905409 -4.094972
v 2.380159 1.433766 -3.923281
v 2.380159 0.050491 -2.918269
v 2.380159 0.050491 -3.473816
v 2.380159 0.905410 -2.297114
v 2.380159 0.377053 -2.468805
v 2.380159 1.760329 -2.918270
v 2.380159 1.433767 -2.468805
v 2.380159 1.760329 -3.473816
v 1.749972 0.905410 -3.196043
v 1.749972 1.760328 -3.473816
v 1.749972 1.433766 -3.923281
v 1.749972 0.905409 -4.094972
v 1.749972 0.377052 -3.923280
v 1.749972 0.050490 -3.473816
v 1.749972 0.050491 -2.918269
v 1.749972 0.377053 -2.468805
v 1.749972 0.905410 -2.297114
v 1.749972 1.433767 -2.468805
v 1.749972 1.760329 -2.918270
vt 0.0993 0.2031
vt 0.1772 0.1440
vt 0.1956 0.2031
vt 0.1772 0.2621
vt 0.0696 0.1075
vt 0.1291 0.1075
vt 0.0031 0.2031
vt 0.0215 0.1440
vt 0.0696 0.2986
vt 0.0215 0.2621
vt 0.1291 0.2986
vt 0.0993 0.2031
vt 0.1291 0.2986
vt 0.1772 0.2621
vt 0.1956 0.2031
vt 0.1772 0.1440
vt 0.1291 0.1075
vt 0.0696 0.1075
vt 0.0215 0.1440
vt 0.0031 0.2031
vt 0.0215 0.2621
vt 0.0696 0.2986
vt 0.2063 0.1405
vt 0.2063 0.1030
vt 0.2754 0.1030
vt 0.2754 0.1405
vt 0.2063 0.1405
vt 0.2754 0.1405
vt 0.2063 0.1769
vt 0.2754 0.1769
vt 0.2063 0.2583
vt 0.2754 0.2583
vt 0.2754 0.2219
vt 0.2063 0.2219
vt 0.2063 0.2992
vt 0.2754 0.2992
vt 0.2063 0.2583
vt 0.2754 0.2583
vt 0.2063 0.2219
vt 0.2754 0.2219
vt 0.2063 0.1769
vt 0.2754 0.1769
vn 1.0000 0.0000 0.0000
vn -1.0000 -0.0000 -0.0000
vn 0.0000 0.5878 -0.8090
vn 0.0000 -0.0000 -1.0000
vn 0.0000 -0.5878 -0.8090
vn 0.0000 -0.8090 -0.5878
vn 0.0000 -0.5878 0.8090
vn 0.0000 -0.8090 0.5878
vn -0.0000 0.0000 1.0000
vn -0.0000 0.5878 0.8090
vn -0.0000 0.9511 0.3090
vn -0.0000 0.9511 -0.3090
usemtl ac3dmat1
s 1
f 135/255/165 136/256/165 137/257/165 138/258/165
f 135/255/165 139/259/165 140/260/165 136/256/165
f 135/255/165 141/261/165 142/262/165 139/259/165
f 135/255/165 143/263/165 144/264/165 141/261/165
f 135/255/165 138/258/165 145/265/165 143/263/165
f 146/266/166 147/267/166 148/268/166 149/269/166
f 146/266/166 149/269/166 150/270/166 151/271/166
f 146/266/166 151/271/166 152/272/166 153/273/166
f 146/266/166 153/273/166 154/274/166 155/275/166
f 146/266/166 155/275/166 156/276/166 147/267/166
f 138/277/167 137/278/168 149/279/168 148/280/167
f 137/278/168 136/281/169 150/282/169 149/279/168
f 140/283/170 151/284/170 150/282/169 136/281/169
f 142/285/171 153/286/171 152/287/172 139/288/172
f 142/285/171 141/289/173 154/290/173 153/286/171
f 141/289/173 144/291/174 155/292/174 154/290/173
f 155/292/174 144/291/174 143/293/175 156/294/175
f 156/294/175 143/293/175 145/295/176 147/296/176
f 147/296/176 145/295/176 138/277/167 148/280/167
